<svg version="1.2" xmlns="http://www.w3.org/2000/svg" viewBox="0 0 800 800" width="800" height="800">
	<style>
		.s0 { fill: #ffffff } 
	</style>
	<path class="s0" d="m400 100l47.67 177.06c5.82 21.61 8.73 32.41 14.47 41.24 5.08 7.82 11.74 14.48 19.56 19.56 8.83 5.74 19.63 8.65 41.24 14.47l177.06 47.67-177.06 47.67c-21.61 5.82-32.41 8.73-41.24 14.47-7.82 5.08-14.48 11.74-19.56 19.56-5.74 8.83-8.65 19.63-14.47 41.24l-47.67 177.06-47.67-177.06c-5.82-21.61-8.73-32.41-14.47-41.24-5.08-7.82-11.74-14.48-19.56-19.56-8.83-5.74-19.63-8.65-41.24-14.47l-177.06-47.67 177.06-47.67c21.61-5.82 32.41-8.73 41.24-14.47 7.82-5.08 14.48-11.74 19.56-19.56 5.74-8.83 8.65-19.63 14.47-41.24z"/>
</svg>